<!-- Exported by Character Map UWP -->
<svg height="100%" viewBox="47 142 931 956" width="100%" xmlns="http://www.w3.org/2000/svg" xmlns:xlink="http://www.w3.org/1999/xlink">
  <path d="M547.328,354.304L605.696,354.304C708.096,354.304 795.648,390.656 868.352,463.36C941.056,536.064 977.408,623.275 977.408,724.992C977.408,827.392 941.056,914.944 868.352,987.648C795.648,1060.35 708.096,1096.7 605.696,1096.7L431.616,1096.7C416.597,1096.7 403.456,1091.07 392.192,1079.81C380.928,1068.54 375.296,1055.4 375.296,1040.38L375.296,957.44C375.296,941.739 380.928,928.427 392.192,917.504C403.456,906.581 416.597,901.12 431.616,901.12L605.696,901.12C654.165,901.12 695.467,883.883 729.6,849.408C763.733,814.933 780.8,773.461 780.8,724.992C780.8,677.205 763.563,636.075 729.088,601.6C694.613,567.125 653.483,549.888 605.696,549.888L547.328,549.888L547.328,728.064C547.328,743.765 542.379,754.347 532.48,759.808C522.581,765.269 511.147,763.904 498.176,755.712L67.072,483.328C53.4186,474.453 46.592,464.043 46.592,452.096C46.592,440.149 53.4186,429.739 67.072,420.864L498.176,148.48C511.147,140.288 522.581,138.923 532.48,144.384C542.379,149.845 547.328,160.427 547.328,176.128Z" fill="#373737" fill-opacity="1">
  </path>
</svg>