<svg width="906" height="905" viewBox="0 0 906 905" fill="none" xmlns="http://www.w3.org/2000/svg">
<path d="M381.344 620.216L850.336 39.6082C855.115 32.7812 861.6 28.6853 869.792 27.3203C877.984 25.9553 885.493 27.6612 892.32 32.4402C899.147 37.2192 903.243 43.5332 904.608 51.3842C905.973 59.2352 904.267 66.5732 899.488 73.4002C639.392 537.613 487.157 792.248 442.784 837.304C386.805 893.28 330.827 889.87 274.848 827.064L9.63169 490.168C2.12229 480.611 -0.949711 469.688 0.415689 457.4C1.78099 445.112 7.24229 435.213 16.7997 427.704L89.5037 370.36C99.0607 362.851 109.984 359.779 122.272 361.144C134.56 362.509 144.117 367.971 150.944 377.528L342.432 619.192C347.211 624.653 353.696 627.384 361.888 627.384C370.08 627.384 376.565 624.995 381.344 620.216Z" fill="white"/>
</svg>